<svg id="Layer_2" data-name="Layer 2" xmlns="http://www.w3.org/2000/svg" xmlns:xlink="http://www.w3.org/1999/xlink" viewBox="0 0 1455 836.57"><defs><style>.cls-1,.cls-7{fill:none;}.cls-2{fill:#c6c6c3;}.cls-10,.cls-3{fill:#7a6638;}.cls-3{stroke:#5e4e2d;}.cls-18,.cls-19,.cls-20,.cls-21,.cls-22,.cls-23,.cls-24,.cls-25,.cls-26,.cls-28,.cls-29,.cls-3,.cls-30,.cls-32,.cls-5,.cls-7{stroke-miterlimit:10;}.cls-3,.cls-5{stroke-width:3px;}.cls-4{fill:#473a23;}.cls-5,.cls-6{fill:#5e4e2d;}.cls-5,.cls-7{stroke:#473a23;}.cls-7{stroke-width:6px;}.cls-8{fill:url(#radial-gradient);}.cls-9{opacity:0.5;}.cls-11,.cls-22{fill:#0b4951;}.cls-12{clip-path:url(#clip-path);}.cls-13{opacity:0.3;}.cls-14{clip-path:url(#clip-path-2);}.cls-15{fill:#07725d;}.cls-16{fill:#808285;}.cls-17{fill:#332919;}.cls-18{fill:#c7b299;stroke:#aa9885;}.cls-19{fill:#3f2903;stroke:#2d1c02;}.cls-20{fill:#1a1a1a;stroke:#0f0f0f;}.cls-21{fill:#c1a814;stroke:#99820e;}.cls-22{stroke:#073438;}.cls-23{fill:#841a22;stroke:#68121d;}.cls-24{fill:#957743;stroke:#7c6139;}.cls-25{fill:#044726;stroke:#04351b;}.cls-26{fill:#290f44;stroke:#180526;}.cls-27{opacity:0.21;}.cls-28{fill:#9b5f37;stroke:#683c23;}.cls-29{fill:#2d1c02;stroke:#3f2903;}.cls-30{fill:gray;stroke:#4d4d4d;}.cls-31{fill:#fff;}.cls-32{fill:#a38343;stroke:#876a36;}</style><radialGradient id="radial-gradient" cx="722" cy="314.5" r="310.1" gradientUnits="userSpaceOnUse"><stop offset="0" stop-color="#6f6f6e"/><stop offset="0.47" stop-color="#575756"/><stop offset="1" stop-color="#3d3d3b"/></radialGradient><clipPath id="clip-path" transform="translate(39 53)"><rect class="cls-1" x="1121.22" y="431.05" width="333.98" height="104.58" transform="translate(35.53 1052.47) rotate(-45)"/></clipPath><clipPath id="clip-path-2" transform="translate(39 53)"><circle class="cls-1" cx="1248.25" cy="452.94" r="65.19" transform="translate(45.32 1015.31) rotate(-45)"/></clipPath></defs><title>chalk</title><rect class="cls-2" y="16" width="1453" height="784"/><rect class="cls-3" x="213.44" y="647" width="42.69" height="188"/><rect class="cls-3" x="1191.87" y="647" width="42.69" height="188"/><rect class="cls-3" x="807.37" y="647" width="42.69" height="188"/><rect class="cls-3" x="850.06" y="647" width="42.69" height="188"/><rect class="cls-3" x="892.75" y="647" width="42.69" height="188"/><rect class="cls-3" x="935.44" y="647" width="42.69" height="188"/><rect class="cls-3" x="978.12" y="647" width="42.69" height="188"/><rect class="cls-3" x="1020.81" y="647" width="42.69" height="188"/><rect class="cls-3" x="1063.5" y="647" width="42.69" height="188"/><rect class="cls-3" x="1106.19" y="647" width="42.69" height="188"/><rect class="cls-3" x="295.13" y="647" width="42.69" height="188"/><rect class="cls-3" x="337.81" y="647" width="42.69" height="188"/><rect class="cls-3" x="380.5" y="647" width="42.69" height="188"/><rect class="cls-3" x="423.19" y="647" width="42.69" height="188"/><rect class="cls-3" x="465.88" y="647" width="42.69" height="188"/><rect class="cls-3" x="508.56" y="647" width="42.69" height="188"/><rect class="cls-3" x="551.25" y="647" width="42.69" height="188"/><rect class="cls-3" x="593.94" y="647" width="42.69" height="188"/><rect class="cls-3" x="636.63" y="647" width="42.69" height="188"/><rect class="cls-3" x="679.31" y="647" width="42.69" height="188"/><rect class="cls-3" x="722" y="647" width="42.69" height="188"/><rect class="cls-3" x="764.69" y="647" width="42.69" height="188"/><rect class="cls-3" x="252.44" y="647" width="42.69" height="188"/><rect class="cls-3" x="1148.87" y="647" width="42.69" height="188"/><rect class="cls-4" x="1261" y="600" width="58" height="16" rx="6.5" ry="6.5"/><rect class="cls-3" x="667.08" y="-77.92" width="34.84" height="1364" transform="translate(1327.58 -27.42) rotate(90)"/><polyline class="cls-5" points="1453 836 1453 609.33 1229.82 609.33 1216.91 609.33 1204 609.33 1204 641.61 1216.91 641.61 1216.91 836"/><polyline class="cls-6" points="0 836 0 258 226.01 258 239.09 258 239.09 340.31 239.09 836 0 836 0 756.9"/><line class="cls-7" x1="1239" y1="564" x2="1350" y2="453"/><rect class="cls-8" x="343" y="93.86" width="758" height="441.29"/><rect class="cls-9" x="343" y="94" width="758" height="6"/><rect class="cls-9" x="329" y="549" width="786" height="5"/><rect class="cls-9" width="1453" height="19"/><rect class="cls-10" y="1" width="1453" height="14"/><circle class="cls-11" cx="1248.18" cy="452.9" r="65.11" transform="translate(84.33 1068.25) rotate(-45)"/><g class="cls-12"><path class="cls-4" d="M1189.93,392.69a83,83,0,1,0,117.36,0A83,83,0,0,0,1189.93,392.69Zm110.92,110.92a73.88,73.88,0,1,1,0-104.48A73.88,73.88,0,0,1,1300.85,503.62Z" transform="translate(39 53)"/></g><rect class="cls-13" x="1218.91" y="641.61" width="236.09" height="3.69"/><polyline class="cls-5" points="1452 742.13 1235.28 742.13 1235.28 661.9 1452 661.9"/><circle class="cls-5" cx="1413.16" cy="701.56" r="10.61"/><polyline class="cls-5" points="1235.28 836 1235.28 773.49 1452 773.49"/><circle class="cls-5" cx="1413.16" cy="813.14" r="10.61"/><rect class="cls-4" x="1285" y="583" width="8" height="20"/><g class="cls-14"><path class="cls-15" d="M1249.63,404.49a1.13,1.13,0,0,1-.15.79,1.53,1.53,0,0,1-.76.52c-.44.17-.57.1-.73.26a1.34,1.34,0,0,0-.2.84c0,.42.06.58-.06.7s-.41,0-.52,0c-.38-.12-.36-.33-.67-.44a1.3,1.3,0,0,0-1,.2,3.52,3.52,0,0,0-.47.47l-.52.52-.5.5a4,4,0,0,0-.41,1,1.73,1.73,0,0,0-.15.67.77.77,0,0,0,.12.47c.19.28.42.19.55.44s0,.26,0,.61a.87.87,0,0,0,.2.55c.22.19.45,0,1.11.06.38.06.51.16.7.06s.2-.29.38-.32.2.09.41.17a1.54,1.54,0,0,0,.84,0c.52-.12.52-.23.79-.2a1.23,1.23,0,0,1,.7.35,3.44,3.44,0,0,0,.5.44,2.45,2.45,0,0,0,.41.17,2.49,2.49,0,0,1,.64.47,2.59,2.59,0,0,0,1.28.58c.41,0,.5-.12.84,0a1.49,1.49,0,0,1,.67.44,8,8,0,0,0,1.66,1.14c.61.29.7.15,1.14.44s.45.48.84.61a1.11,1.11,0,0,0,.87,0c.47-.26.36-.92.73-1,.09,0,.13,0,.52.17a6.46,6.46,0,0,0,1.14.44,2,2,0,0,0,.93-.12l.67-.32a.58.58,0,0,0,.47.06c.28-.1.26-.41.52-.52.1,0,.22,0,.7.12a5.39,5.39,0,0,1,1,.38c.48.31.41.55.84.79s.8.25.9.09-.51-.92-.58-1c-.31-.31-.41-.26-.73-.55a3.13,3.13,0,0,1-.7-.93c-.32-.58-.22-.74-.5-1.25a6.55,6.55,0,0,0-.82-1,8.88,8.88,0,0,0-1.34-1.34c-.55-.32-.76-.23-1.19-.61s-.29-.41-.61-.84a8,8,0,0,0-1.49-1.31c-.71-.57-.71-.54-1.25-1a11.65,11.65,0,0,1-1.28-1.11,11.58,11.58,0,0,0-1.14-1.19c-.38-.29-.44-.26-.82-.58a10.07,10.07,0,0,0-.87-.82c-.42-.28-.48-.13-.93-.41-.7-.41-.7-.82-1.22-.93-.36-.07-.39.1-.79,0a2.19,2.19,0,0,1-1-.64c-.31-.28-.31-.33-.7-.7s-.6-.54-.82-.52a.84.84,0,0,0-.67.79c0,.38.19.6.44.9a6.87,6.87,0,0,0,1,.82A2.82,2.82,0,0,1,1249.63,404.49Z" transform="translate(39 53)"/><path class="cls-15" d="M1254.44,417.65c.12-.12.44,0,.7.06a1.19,1.19,0,0,1,.67.38c.17.23.07.33.2.61s.16.25,1,.79a4.8,4.8,0,0,1,.79.55,1.53,1.53,0,0,1,.52.76c.09.35,0,.84-.26,1-.09,0-.19,0-.93-.41a5.16,5.16,0,0,0-.79-.44c-.5-.17-.67,0-.9-.2s-.1-.36-.38-.73-.28-.22-.52-.52-.31-.39-.29-.58.19-.22.26-.5S1254.31,417.79,1254.44,417.65Z" transform="translate(39 53)"/><path class="cls-15" d="M1255.11,427.65a.94.94,0,0,0-.55-.38c-.32-.09-.39,0-.7-.06s-.35-.26-.52-.23-.16.22-.38.38-.54,0-.79.26a.73.73,0,0,0-.23.52.68.68,0,0,0,.26.55c.23.17.41,0,.73.15s.31.42.58.47a1,1,0,0,0,.67-.26c.2-.17.2-.32.38-.38s.33.1.5,0S1255.36,428,1255.11,427.65Z" transform="translate(39 53)"/><path class="cls-15" d="M1257.38,426.89a1.13,1.13,0,0,0-.84,0,1.26,1.26,0,0,0-.67.67,1.67,1.67,0,0,0-.23,1c.06.38.22.42.23.82s-.07.66-.23.7-.1,0-.5-.32-.29-.23-.35-.23c-.22,0-.29.26-.7.52-.23.15-.26.09-.64.29s-.55.29-.55.44.33.33.73.5.5.12.73.26c.42.25.32.47.73.73a3,3,0,0,0,.84.32h0a1.33,1.33,0,0,1,.23-.35c.2-.09.39.25.58.17s.23-.35.2-.55-.22-.33-.2-.55.28-.28.35-.58,0-.28-.06-.58a1.71,1.71,0,0,1,.29-1c.22-.31.36-.22.58-.52a1,1,0,0,0-.52-1.69Z" transform="translate(39 53)"/><path class="cls-15" d="M1239.83,400.83c-.07.1-.23.06-1.25,0l-.64-.06h0s-.15.32-.29.35-.38-.32-.51-.57c-.26-.47-.22-.6-.42-.77a.88.88,0,0,0-.68-.16c-.1,0-.32.06-.38.2s.28.63.57.92.52.38.6.6,0,.22-.06,1c0,.16,0,.32,0,.5,0,.33.19.39.42.89s.17.58.33.68.32,0,.79,0c.2,0,.19.07.54.13a1.42,1.42,0,0,0,.67.09c.28-.07.42-.39.6-.77s.22-.66.31-.66.2.23.26.44c.09.41-.15.61,0,.87a.74.74,0,0,0,.39.33,1.38,1.38,0,0,0,1,.09c.07,0,.64-.2.74-.63a2.26,2.26,0,0,0-.1-.74c-.12-.5-.15-.55-.12-.7s.31-.22.51-.51a1.18,1.18,0,0,0,.16-.8c0-.31-.17-.32-.39-.86a1.66,1.66,0,0,1-.22-.8c0-.36.2-.44.22-.74,0-.13,0-.29-.57-1-.71-.92-.95-1-1.08-1.08s-.33,0-.58-.17-.36-.39-.68-.8a2.31,2.31,0,0,0-.92-.86c-.2-.09-.17,0-1.11-.09-.54,0-.7-.09-.83,0s-.09.5-.33.68a.73.73,0,0,1-.58.06.83.83,0,0,1-.57-.63c0-.33.25-.42.45-1,.09-.23.23-.67,0-.87s-.28-.07-.71-.13c-.64-.12-.7-.35-1-.28a2.45,2.45,0,0,0-.8.57h0c.73-.44-.32.32-.32.32-.2.06-.47-.23-.6-.36-.35-.38-.28-.57-.57-.8s-.2-.06-.55-.26a4.4,4.4,0,0,1-.6-.42c-.23-.2-.19-.25-.51-.57s-.45-.39-.51-.57.06-.35,0-.64a1.28,1.28,0,0,0-.51-.68,4.29,4.29,0,0,0-1-.6,4.93,4.93,0,0,1-.95-.6,1.79,1.79,0,0,1-.71-1c-.07-.39.1-.57,0-.8s-.44-.15-.63-.39,0-.38-.13-.77a2.15,2.15,0,0,0-.54-.89c-.44-.5-.64-.44-.83-.83s-.06-.47-.25-.66-.33-.1-.63-.28-.26-.35-.63-.68a3.86,3.86,0,0,0-.83-.54,3.88,3.88,0,0,1-.83-.48c-.23-.2-.22-.31-.45-.45s-.48-.1-.68-.28-.1-.36-.33-.74-.29-.23-.42-.48-.06-.44-.19-.77-.17-.2-.74-.74a6.36,6.36,0,0,1-.63-.63,9.94,9.94,0,0,1-.51-.92c-.29-.47-.36-.39-.66-.83s-.28-.71-.57-1-.42-.13-.74-.39-.25-.45-.54-.66-.41-.09-.68-.28-.2-.38-.48-.6-.67-.09-1.11-.44c-.25-.19-.2-.29-.45-.45s-.45-.1-.8-.22-.36-.33-.95-.71c-.41-.26-.7-.47-1-.36s-.29.41-.6.48c-.09,0-.23,0-.68-.22s-.74-.48-1.09-.74-.66-.48-.83-.48c-.41,0-.79.35-.74.51s.35.06.6.31.26.55.15.67-.23.06-.74-.16a14.68,14.68,0,0,0-1.6-.79c-.57-.16-.7,0-1.11-.26-.23-.12-.42-.31-.63-.22s-.17.26-.35.29-.31-.19-.44-.15,0,.25-.17.58-.33.39-.28.57.17.15.29.35a.51.51,0,0,1,0,.52c-.1.1-.28,0-.67-.15-1.08-.44-.35-.12-.95-.36-1-.57-1.17-.64-1.31-.55a.53.53,0,0,0-.2.55c.1.28.54.25,1.24.42a13,13,0,0,1,1.57.61c.9.38.77.36,1.62.71.52.2,1,.47,1.53.68a2,2,0,0,1,.8.57c.1.13.17.26.28.39.19.31.38.35,1.12.83s.79.55,1,.48.23-.23.44-.26.58.35.63.39c.22.31.13.48.31.89s.25.33.57.74a3,3,0,0,1,.68,1.21,2.34,2.34,0,0,1-.29,1.49,2.86,2.86,0,0,1-.77,1c-.32.26-.41.2-.86.57a3.49,3.49,0,0,0-.66.66,1.61,1.61,0,0,1-.26.38,1.35,1.35,0,0,1-.77.25c-.48.07-.57,0-.7.12s-.12.35-.22.74a2.63,2.63,0,0,1-.42.83c-.13.16-.36.36-1.33.57a8.44,8.44,0,0,1-2.26.31,2.32,2.32,0,0,0-1.22.15,2.9,2.9,0,0,1-.6.31c-.44.12-.61-.06-.93.09-.16.07-.29.23-.54.54-.42.51-.33.57-.6.83s-.52.29-.71.6-.07.28-.2.5c-.26.41-.63.33-.71.6s.19.36.31.89a1.53,1.53,0,0,1-.12,1.08c-.1.19-.15.12-.57.57a5.59,5.59,0,0,0-.54.66,2,2,0,0,0-.31.54c-.09.23-.07.33-.19.71s-.16.36-.2.38-.35-.23-.57-.16-.31.33-.31.54c-.06.47.31.66.19,1,0,.13-.09.09-.38.44s-.36.45-.39.63.16.36.16.74-.26.58-.13.77a.5.5,0,0,0,.66.1c.29-.2.25-.89.25-.89h0a11.08,11.08,0,0,1,.45-1.15,9.73,9.73,0,0,0,.48-.95,5.34,5.34,0,0,1,.22-.63c.19-.36.32-.32.6-.71s.31-.68.57-.8a.6.6,0,0,1,.58.06.46.46,0,0,1,.12.41c-.06.29-.36.31-.71.71a1.37,1.37,0,0,0-.39.74c0,.45.26.73.1.92s-.25,0-.44.2a.89.89,0,0,0-.23.47c-.06.26,0,.33,0,.5s-.29.15-.44.32,0,.42.06,1a3,3,0,0,1-.17,1c-.12.38-.15.32-.25.71s-.1.66-.25.77-.33,0-.64.06a.92.92,0,0,0-.57.86c0,.23.2.26.23.52s-.19.39-.19.71.16.36.33.74a3.69,3.69,0,0,1,.22.92c.25.92.55.93.71,1.73.09.44,0,.57.16.74s.55.15,1,.48a.92.92,0,0,1,.33.33c.13.22.15.44.12,1.19a5.09,5.09,0,0,0,0,.7,3,3,0,0,0,.47,1.19c.12.2.23.41.42.71.33.54.38.55.39.68a1.54,1.54,0,0,1-.44,1.11c-.31.39-.47.38-.51.63s.09.32.23,1a2,2,0,0,1,.07.77c0,.33-.1.42,0,.61s.32.2.45.45-.06.47.07.77.32.32.8.57.58.26.63.39-.06.32-.28.68c-.35.58-.52.87-.57.92a3.08,3.08,0,0,1-1,.71,4.32,4.32,0,0,1-1.19.35c-.64.09-.66,0-1.31,0s-1.5.1-1.85.66c-.2.29-.09.5-.36.83a1.53,1.53,0,0,1-.68.45c-.36.13-.48,0-.71.13a1.28,1.28,0,0,0-.51.8c-.15.52,0,.71-.06,1.31a5.4,5.4,0,0,1-.31.89,11.31,11.31,0,0,0-.32,1.75,6.33,6.33,0,0,1-.51,1.88,2.54,2.54,0,0,0-.36.71,2.87,2.87,0,0,0,0,1.22,9.08,9.08,0,0,0,.26,1.28c.28,1.18.31,1.24.35,1.54a3.11,3.11,0,0,1,0,1.43,3.24,3.24,0,0,1-.95,1.35c-.15.15-.23.23-1.21,1.09s-1.25,1.08-1.4,1.4a3,3,0,0,1-.42.83c-.31.31-.48.22-.89.54a3,3,0,0,0-.77.95c-.23.38-.2.41-.54,1a5.37,5.37,0,0,1-.63,1c-.42.39-.64.26-1.15.74a3.75,3.75,0,0,1-.48.48c-.33.22-.51.19-.68.39s-.09.32-.16.68a3.21,3.21,0,0,1-.71,1.24c-.38.47-.5.44-.6.71s.07.51,0,1c0,.23-.07.16-.42,1-.29.67-.32.84-.54,1s-.35.12-.45.28,0,.35-.07.66-.16.33-.45.86a3.27,3.27,0,0,0-.39.86c-.16.57,0,.73-.17,1.14s-.29.26-.42.6a2.14,2.14,0,0,0-.09.93c0,.57,0,.87.2,1s.38.12.68.39c.07.07.42.39.36.71s-.36.31-.36.54.23.23.48.6.12.35.31.71.39.71.71.71a.56.56,0,0,0,.54-.48c0-.23-.22-.31-.48-.71a1.77,1.77,0,0,1-.36-1.18c.06-.38.28-.36.36-.77.15-.61-.28-.92-.06-1.25s.32-.09.71-.42.31-.42.51-.45.35.17.64.17a.93.93,0,0,0,.8-.86c0-.35-.33-.48-.25-.77a.72.72,0,0,1,.6-.42c.23,0,.32.06.47,0s.12-.52.33-.68.45.13.82,0,.22-.31.51-.45.42,0,.8-.1.51-.51.92-.57a1.44,1.44,0,0,1,.8.22c.71.33.74.6,1.06.6s.42-.51,1.09-.8a4,4,0,0,1,1.28-.2,7.32,7.32,0,0,0,1-.06c.63-.16.61-.5,1.27-.74a10.6,10.6,0,0,1,1.28-.2,8,8,0,0,1,.89-.13c.7-.06.74.07,1,0s.31-.36.89-1.12c.33-.42.5-.64.71-.71a1.63,1.63,0,0,1,1.19.17c.33.16.39.31.71.36s.42-.07.7,0c.48.13.42.68.89.83.28.07.33-.1.83,0,.28,0,.36.1.52.06s.23-.29.45-.45.58,0,1-.16.28-.57.68-.74.44,0,.68-.16.15-.23.33-.39.44-.15.66-.31.13-.45.39-.92a1.43,1.43,0,0,1,.68-.63c.35-.12.44.06.87,0s.47-.26.89-.36a2.55,2.55,0,0,1,.87,0,3.24,3.24,0,0,0,1.85-.66,2.15,2.15,0,0,0,1-1.37,1.38,1.38,0,0,0-.07-.77c-.15-.32-.29-.29-.42-.54-.22-.42.15-.7.09-1.4a1.94,1.94,0,0,0-.42-1.06c-.29-.32-.48-.28-.77-.54s-.31-.71-.5-1.57a9.41,9.41,0,0,0-.77-2.14c-.41-.82-.74-1.09-.61-1.46s.63-.42.68-.86c0-.26-.13-.31-.12-.58,0-.48.64-.52.74-1,.07-.31-.15-.35-.16-1,0-.42.07-.42,0-.71a2.19,2.19,0,0,0-.68-1.15c-.39-.42-.57-.39-.74-.74a1.53,1.53,0,0,1-.16-.8c0-.44.2-.47.25-.95a3.06,3.06,0,0,0-.07-.89c-.13-.45-.26-.52-.19-.71,0,0,.06-.17.71-.54h0a1.42,1.42,0,0,0,.09-.61c-.06-.29-.36-.25-.8-.68s-.33-.51-.57-.57-.38.15-.58.06-.17-.35-.42-.77-.32-.29-.45-.57,0-.58-.17-1.08c-.1-.31-.17-.23-.42-.71s-.25-.77-.48-.95-.31,0-.71-.13-.42-.31-.95-.54a1.56,1.56,0,0,0-.92-.22c-.41,0-.47.26-.89.31a1.54,1.54,0,0,1-.89-.19c-.42-.28-.31-.6-.83-1.12-.29-.29-.36-.22-.66-.54a2.15,2.15,0,0,1-.54-.89,1.5,1.5,0,0,1,.12-1.14c.22-.33.44-.2.92-.68.31-.31.31-.42.57-.57s.45,0,.71-.19a1.08,1.08,0,0,0,.48-.83c.06-.61-.51-1.09-.68-1.27-.44-.38-.73-.35-.8-.63a1,1,0,0,1,.54-.89c.32-.17.44,0,.92-.1a3,3,0,0,0,1-.57,1.09,1.09,0,0,1,.42-.31c.29-.09.48.07.61,0s0-.54-.16-.8a2.11,2.11,0,0,0-.92-.63c-.38-.17-.57-.28-.8-.22s-.29.17-.63.39a1.66,1.66,0,0,1-1,.45c-.23,0-.32-.17-1-1.14-.58-.79-.64-.84-.68-1a2.13,2.13,0,0,1,.38-1.57,3.53,3.53,0,0,1,1.6-1.31c.76-.35,1.06-.19,1.59-.63s.38-.52.71-.66.67,0,1.34.15a6,6,0,0,1,1.35.54,2.46,2.46,0,0,1,.63.45,7.65,7.65,0,0,1,.66,1.12c.33.51.47.55.51.57.31.07.48-.25.8-.16s.2.23.57.45.44.12.6.31a.71.71,0,0,1,.16.51c0,.22-.13.25-.12.41s.36.22.51.51a.93.93,0,0,1-.06.76c-.15.26-.31.25-.57.51a2.53,2.53,0,0,0-.57,1.09c-.16.48-.25.74-.1.92s.68.19,1,.09.64-.47,1-1c.51-.74.42-.92.8-1.27a2.33,2.33,0,0,1,1.21-.57c.51-.07.54.13,1.63.32s1.22.06,1.6.35.42.54.68.51.25-.19.48-.36a2.12,2.12,0,0,1,1.09-.28c.86-.13.77-.33,1.54-.47a9.11,9.11,0,0,1,1.54,0,4.5,4.5,0,0,1,1.43.17c.7.32.89.92,1.24.83s.2-.41.54-.54.31,0,1,.16.57.07.8.16.68.31.74.74-.29.5-.19.71.55.26,1,.28.48,0,.67,0,.31.33.71.77c.28.28.57.6.8.51a.7.7,0,0,0,.28-.8c-.1-.39-.47-.38-.6-.77a.89.89,0,0,1,.22-.92c.35-.26.77.16,1.25-.12.28-.16.23-.35.48-.42.41-.12.86.31.95.36.44.41.28.68.68,1s.67.17.77.42a.53.53,0,0,1-.15.55c-.19.13-.39,0-.83,0s-.87.12-1,.39.36.71.42.77c.36.31.61.2.86.51a2.17,2.17,0,0,1,.28.63c.19.48.17.58.31.71a.64.64,0,0,0,.73.09c.19-.13.07-.33.28-.57s.28-.13.68-.39.31-.28.32-.32-.16-.28-.17-.52.42-.63.48-.66c.33-.22.5-.09.89-.31.2-.12.41-.23.45-.45s-.2-.44-.12-.7.29-.17.35-.35-.32-.38-.36-.71c0-.07,0-.29.6-1.06.5-.61.63-.63.83-1,.07-.13.45-.83.2-1.11s-.29,0-.86-.16a7.32,7.32,0,0,0-.86-.28c-.36-.07-.48,0-.61-.15a.62.62,0,0,1,0-.8c.2-.23.52-.06.77-.31a.87.87,0,0,0,.2-.55,2.82,2.82,0,0,0-.26-1.46c-.31-.74-.48-1.21-.92-1.38a3.67,3.67,0,0,0-.79-.12h0a.92.92,0,0,1-.41.41c-.23.06-.32-.2-.55-.15s-.17.29-.42.42a1,1,0,0,1-.82,0c-.38-.12-.52-.35-.63-.28s.12.41,0,.73a1,1,0,0,1-.63.39,1.74,1.74,0,0,1-1,0c-.38-.12-.39-.25-1.12-.54a1.07,1.07,0,0,0-.55-.15c-.13,0-.28,0-.71.42s-.41.44-.57.51a1,1,0,0,1-1.19-.35.87.87,0,0,1,.13-.95c.07-.07.19-.16,1.18-.36.45-.1.57-.1.61-.2s-.19-.36-.66-1.06a2.64,2.64,0,0,1-.45-.86c-.09-.32,0-.31-.06-.76a4,4,0,0,0-.31-1c-.12-.2-.2-.32-.17-.47s.17-.17.32-.32c.29-.32.07-.66.28-.86s.38-.06,1.28.09,1,.09,1.22.2c.45.19.45.36,1.18.71a2.5,2.5,0,0,0,.68.28c.5.12.63,0,.95.13a1.31,1.31,0,0,1,.6.66c.17.44,0,.63.13.89s.54.07,1.06.42a1.88,1.88,0,0,1,.48.48c.22.33.23.58.36.6s.31-.19.38-.38,0-.38,0-.63a.63.63,0,0,1,.33-.33c.22,0,.31.22.68.45a1.77,1.77,0,0,0,1.22.26c.28-.07.25-.19.57-.28a3,3,0,0,1,.84,0c.63,0,.63,0,.79,0s.2.38.57.8.38.26.45.45-.16.45-.1.92S1239.92,400.72,1239.83,400.83Z" transform="translate(39 53)"/><path class="cls-15" d="M1204,408.94a1.07,1.07,0,0,0-.92.1c-.13.1-.28.33-.2.5s.5,0,1,.28a1.76,1.76,0,0,1,.57.57,4.55,4.55,0,0,1,.42.66,4.71,4.71,0,0,1,.36.71,1.51,1.51,0,0,1,.16,1c-.09.32-.31.39-.28.63s.23.23.45.57.1.42.28.63a.81.81,0,0,0,.89.25l0,0c.19-.22-.16-.66-.32-1.22s0-.44-.09-1.11a5.26,5.26,0,0,0-.41-1.31,5.06,5.06,0,0,0-.63-1.09A2.24,2.24,0,0,0,1204,408.94Z" transform="translate(39 53)"/><path class="cls-15" d="M1206.65,415.8c.15,0,.09-.44.25-.48s.13,0,.41.29.33.28.48.42a2.18,2.18,0,0,1,.42.48,1.94,1.94,0,0,1,.22.8,5.4,5.4,0,0,0,.06.55.56.56,0,0,1,0,.13c-.09.12-.57,0-.89-.25s-.25-.39-.48-.48-.29,0-.5,0-.32-.41-.63-1-.68-.86-.6-1,.32-.09.5,0C1206.36,415.37,1206.49,415.85,1206.65,415.8Z" transform="translate(39 53)"/><path class="cls-15" d="M1244.94,485.38s-.09-.06-1.08.26a5,5,0,0,1-1.08.35,4.22,4.22,0,0,1-1.7-.45c-.54-.19-.58-.23-.77-.22a1.82,1.82,0,0,0-1.17.82c-.36.45-.28.6-.58.84a2.64,2.64,0,0,1-.95.39c-.55.17-.6.1-.86.22a2,2,0,0,0-.86.86,1.77,1.77,0,0,0-.31,1.3,1.49,1.49,0,0,0,.95,1.12c.29.09.57,0,1.57-.41a27,27,0,0,1,2.61-1.27c.58-.15,1.06-.16,1.4-.58.17-.23.19-.42.45-.63s.67-.2,1-.26C1244.62,487.51,1245.28,485.66,1244.94,485.38Z" transform="translate(39 53)"/><path class="cls-16" d="M1281.31,515.28a.45.45,0,0,0,.26,0c.09,0,.25-.1.5-.52.15-.26.13-.31.35-.73a2,2,0,0,1,.32-.52.79.79,0,0,1,.5-.29,1.08,1.08,0,0,1,.42.07c.26.09.29.15.39.13s.17-.26.38-.35.19,0,.52,0a1.62,1.62,0,0,0,.74-.07.63.63,0,0,0,.44-.38.35.35,0,0,0,0-.33c-.15-.17-.51-.07-.55-.06s-.2.12-.31.1-.17-.15-.31-.31c-.26-.35-.35-.26-.48-.51s-.09-.52-.26-.64a3,3,0,0,0-.38-.06,2.37,2.37,0,0,0-.45,0l-.41.06a1.84,1.84,0,0,0-.47.09c-.16.13-.07.28-.25.42s-.33,0-.51.16-.09.29-.25.39-.32-.06-.55,0a.61.61,0,0,0-.36.39c-.06.2.07.28,0,.5a.79.79,0,0,1-.35.47c-.26.2-.44.15-.52.32a.43.43,0,0,0,.06.44.54.54,0,0,0,.57.1c.15-.06.17-.15.26-.15s.29.2.41.41a1.25,1.25,0,0,1,.19.42C1281.27,515.09,1281.24,515.21,1281.31,515.28Z" transform="translate(39 53)"/><path class="cls-15" d="M1285.1,506.11a.57.57,0,0,1,.1.33c0,.16-.1.22-.12.41a1.32,1.32,0,0,0,0,.33c0,.19.09.38.15.55s.15.26.13.36a.47.47,0,0,1-.33.28,1.56,1.56,0,0,1-.38,0,5,5,0,0,0-.52.06l-.29,0c-.19.07-.28.25-.39.48s-.09.32-.22.51-.2.2-.23.35,0,.13,0,.32,0,.22-.06.26-.22,0-.5-.09a.93.93,0,0,0-.68.07c-.13.1-.12.2-.25.25s-.2,0-.5-.09a1,1,0,0,0-.48,0c-.12,0-.16.1-.45.45a3.1,3.1,0,0,1-.44.44c-.26.2-.35.23-.41.2s-.06-.12-.16-.22-.15-.09-.51-.19-.32-.09-.35-.12,0-.23,0-.51a1.32,1.32,0,0,0-.28-.6,4.69,4.69,0,0,0-.41-.35c-.16-.1-.23-.15-.26-.23s.09-.2.07-.33-.19-.13-.33-.31a.59.59,0,0,1-.13-.48c.07-.22.28-.19.44-.47a1.48,1.48,0,0,0,.13-.48c0-.31,0-.32,0-.45s.36-.22.55-.52,0-.31.2-.5.29-.2.63-.31a.84.84,0,0,1,.5-.09c.22,0,.22.19.47.29s.35,0,.66,0,.26.2.58.32a1.88,1.88,0,0,0,.8.07c.39,0,.44-.09.73-.09a3.55,3.55,0,0,1,.73.17C1284.17,506.43,1284.85,505.83,1285.1,506.11Z" transform="translate(39 53)"/><path class="cls-15" d="M1275.49,500.4a2,2,0,0,0,0-.58c0-.32-.13-.39-.1-.63s.17-.29.16-.54a1,1,0,0,0-.26-.58,2.24,2.24,0,0,1-.29-.44c-.1-.22-.12-.29-.2-.35a.44.44,0,0,0-.44.12.85.85,0,0,0-.16.63c0,.17,0,.19,0,.6,0,.16,0,.32,0,.5-.06.35-.25.39-.26.73,0,.15,0,.12,0,.36a1.67,1.67,0,0,1,0,.54,1.49,1.49,0,0,1-.35.58.53.53,0,0,1,0,.36c0,.15-.1.19-.17.35a1.57,1.57,0,0,0-.06.47,3,3,0,0,1,0,.51c-.07.25-.17.23-.28.51a2.26,2.26,0,0,0-.1.51c0,.32,0,.38,0,.63a2.09,2.09,0,0,0-.09.38c0,.2,0,.22,0,.36s-.07.22-.09.32.07.31.12.5,0,.2-.09.79a3.37,3.37,0,0,0-.09.93c0,.23.12.58.12.58a.44.44,0,0,1,.28.28c0,.17-.12.26-.07.45s.15.12.25.31,0,.29.12.44.35.17.55.32.15.26.39.86.33.83.58,1,.31.13.44.29.1.25.26.44.16.1.35.29.22.31.32.32a.38.38,0,0,0,.39-.22s0-.1-.09-.55h0a4.28,4.28,0,0,0-.07-.86c-.1-.31-.25-.22-.47-.61s-.13-.51-.36-.83a.82.82,0,0,0-.38-.32c-.23-.09-.32,0-.48-.07a1,1,0,0,1-.33-.63,2.43,2.43,0,0,0-.12-.44c-.12-.26-.26-.29-.38-.47a1.16,1.16,0,0,1,0-1,2.9,2.9,0,0,1,.86-.8.82.82,0,0,0,.32-.38,1.42,1.42,0,0,0,0-.5c0-.22,0-.26,0-.35,0-.32.22-.48.36-.74s.17-.73.12-1.46c0-.51-.12-.41-.17-1A6.33,6.33,0,0,1,1275.49,500.4Z" transform="translate(39 53)"/><path class="cls-15" d="M1257.94,473.93a.34.34,0,0,1,.15.32c0,.13-.17.12-.38.26s-.17.2-.36.42a2.24,2.24,0,0,1-.71.57,3.28,3.28,0,0,1-.64.2c-.31.1-.42.16-.79.29-.76.29-.76.23-1.34.47a8.45,8.45,0,0,1-.95.39,4.21,4.21,0,0,1-.84.12,4.59,4.59,0,0,1-1.34,0c-.47-.09-.42-.19-.84-.26a3.88,3.88,0,0,0-1.33.07c-.31,0-.61.12-1.15.22a1.93,1.93,0,0,1-.79.09c-.35-.06-.44-.2-.68-.16s-.17.12-.57.31a2,2,0,0,1-.7.26,2.91,2.91,0,0,0-.44,0c-.16,0-.29.17-.51.51-.36.54-.28.6-.5.87s-.45.25-.74.6a2.18,2.18,0,0,0-.39.83c-.2.64-.09.73-.26,1s-.38.2-.9.64c-.29.23-.23.26-.73.73a3.82,3.82,0,0,1-.83.66,2.07,2.07,0,0,1-.8.16,3,3,0,0,1-1.35-.13c-.5-.17-.54-.36-.87-.35s-.39.19-.77.19-.38-.15-.66-.13a1.23,1.23,0,0,0-.79.47c-.33.36-.23.55-.52,1a2.32,2.32,0,0,1-1.31.9,2.76,2.76,0,0,1-1.09,0c-.39-.07-.48-.19-.73-.15s-.23.09-.8.48a2.63,2.63,0,0,1-.79.47c-.28,0-.32-.06-.73-.06a3.86,3.86,0,0,0-.71.13c-.26.06-.61.15-1.06.22a4.1,4.1,0,0,0-.84,0,6.73,6.73,0,0,1-.95.07,1.39,1.39,0,0,1-.83-.16c-.2-.15-.26-.29-.48-.33s-.2,0-.29,0-.09-.2-.17-.29-.19,0-.33-.07-.28-.36-.58-.61-.31-.07-.68-.31-.28-.33-.67-.61-.38-.17-.48-.33a6.26,6.26,0,0,1-.22-.63c-.1-.25-.15-.29-.13-.39s.17-.17.31-.42,0-.28.15-.41.19-.1.35-.2a1.52,1.52,0,0,0,.45-.51c.15-.29.06-.38.2-.67a5.17,5.17,0,0,1,.33-.45,1.85,1.85,0,0,0,.38-.84c0-.28-.09-.26-.09-.61a1.79,1.79,0,0,1,.29-1,2.66,2.66,0,0,1,.48-.51,1.81,1.81,0,0,0,.39-.42c.13-.22.06-.29.17-.5s.13-.19.47-.47c.57-.45.58-.44.66-.54s0-.35.15-.87c.09-.29.2-.58.32-.87s.2-.58.28-.86c.12-.52.07-.57.19-.77s.22-.19.61-.61.31-.42.51-.51.25,0,.52-.12a2,2,0,0,0,.54-.31c.39-.31.35-.5.61-.58s.22,0,.61,0a1.82,1.82,0,0,0,.63-.1,1.37,1.37,0,0,0,.66-.63c.17-.29.1-.33.35-.79a4.08,4.08,0,0,1,.36-.6c.26-.32.33-.28.51-.51s.1-.19.36-.89a4.27,4.27,0,0,1,.25-.57c.22-.39.31-.39.42-.66s0-.39.07-1c0-.12,0-.36.09-.87.1-.95.15-1.11.29-1.22s.19,0,.55-.17a2.82,2.82,0,0,0,.63-.39c.25-.22.2-.29.41-.44s.33-.1.6-.28a.91.91,0,0,0,.47-1.19l-.1-.19a1.77,1.77,0,0,0-.54-.6c-.29-.23-.38-.2-.52-.41a1,1,0,0,1-.17-.64c0-.28.2-.29.29-.55a1.18,1.18,0,0,0-.1-.92,1.71,1.71,0,0,0-.84-.79c-.33-.16-.39-.07-.89-.25s-.42-.25-.84-.41c-.58-.2-.83-.13-1-.36s0-.25-.19-.48-.28-.22-.38-.44,0-.22-.09-.35-.26-.15-.57-.31-.19-.19-.45-.33a5,5,0,0,0-.7-.26,2,2,0,0,1-.39-.16c-.15-.15-.1-.33-.15-.82a6.73,6.73,0,0,0-.13-.95c-.1-.42-.16-.39-.22-.74a4.34,4.34,0,0,1,0-1.06,4.66,4.66,0,0,1,.19-.92c.16-.54.25-.54.38-1a4.37,4.37,0,0,0,.15-1.08c0-.29,0-.29,0-.7a4.84,4.84,0,0,1,0-.92,2.88,2.88,0,0,1,.44-1,2,2,0,0,1,.77-.71c.38-.15.47,0,.93-.15.25-.13.48-.28.71-.42.63-.39.77-.51.8-.68s0-.22,0-.35.19-.13.29-.23.1-.39.26-.7a1.33,1.33,0,0,1,1-.73,1.35,1.35,0,0,0,.48,0c.19-.07.23-.2.44-.29s.2,0,.57,0a2.09,2.09,0,0,0,.67-.12,2.17,2.17,0,0,0,.44-.26,1.38,1.38,0,0,1,.38-.2c.17,0,.23.06.47.09a1.5,1.5,0,0,0,.71-.07c.38-.09.45-.22.64-.17s.19.16.38.26.54.1,1.15,0a2.31,2.31,0,0,0,.93-.2c.26-.15.25-.28.51-.36s.44,0,.67-.15.17-.23.31-.28.28.13.57.16.31-.1.55-.09.29.23.57.28a1.69,1.69,0,0,0,.8-.16c.31-.1.36-.16.51-.13a.62.62,0,0,1,.45.39,1.46,1.46,0,0,1,.06.35c.06.23.25.31.54.54.5.38.42.45.82.7a1.62,1.62,0,0,0,.67.29c.31.07.35,0,.6,0,.07,0,.2.06.76.5a5.46,5.46,0,0,0,.52.41c.28.19.29.15.58.35.47.32.54.48.55.55s0,.17.07.25.28.1.5.2.09.06.39.39c.47.52.52.58.64.64s.22,0,.45.19.42.25.48.48a.69.69,0,0,1-.2.58c-.15.15-.25.07-.41.23s-.12.35-.31.48-.42,0-.67.15a.71.71,0,0,0-.26.52,1.42,1.42,0,0,0,.15.73,1.7,1.7,0,0,0,.2.44c.15.2.25.19.5.44a1.08,1.08,0,0,1,.41.52,1.12,1.12,0,0,1-.07.66c-.07.25-.15.26-.13.39s.17.23.41.55a1.54,1.54,0,0,1,.33.63c.07.31-.06.38,0,.61s.39.48.57.42.07-.33.31-.57a1.07,1.07,0,0,1,.73-.2,1,1,0,0,1,.36.07,2.65,2.65,0,0,1,.33.22c.26.17.29.12.41.23a1.23,1.23,0,0,1,.23.9,1.39,1.39,0,0,1,.17.23,3,3,0,0,1,.2.61l.1.36a8,8,0,0,1,.63.77,2.8,2.8,0,0,1,.51.89c.06.17.06.29.16.39s.31,0,.6.13a1.3,1.3,0,0,1,.45.22,1.28,1.28,0,0,1,.35.87A2.67,2.67,0,0,1,1259,457a2.27,2.27,0,0,1-.61.93c-.23.23-.44.29-.61.61a1.37,1.37,0,0,0-.15.41c-.12.38-.15.52-.23.82a7.19,7.19,0,0,1-.29.84c-.2.44-.32.5-.35.79a4.09,4.09,0,0,0,0,.57,2.32,2.32,0,0,1-.07.77,1.94,1.94,0,0,1-.57.89,1.92,1.92,0,0,0-.47.52,1.29,1.29,0,0,0-.1.48c-.12,1.19-.07,1.15-.13,1.27-.17.44-.44.38-.67.93a1.12,1.12,0,0,0-.13.6c0,.42.36.48.44.9,0,.23-.06.2-.12.67,0,.16,0,.17,0,.9,0,.52,0,.64-.1.77s-.19.13-.29.29a.8.8,0,0,0-.1.48s0,.63.38.82c.13.07.2,0,.38.15a1.12,1.12,0,0,1,.26.26c.16.19.29.15.82.38a2.3,2.3,0,0,1,.76.38,1.68,1.68,0,0,0,.41.38.64.64,0,0,0,.28.1.33.33,0,0,1,.16,0l.1,0Z" transform="translate(39 53)"/><path class="cls-15" d="M1246.17,437.43c-.09-.09-.23.06-.39,0s-.25-.28-.38-.61-.06-.29-.16-.57a1.3,1.3,0,0,0-.28-.57c-.16-.16-.29-.12-.42-.31a.58.58,0,0,1-.15-.35c0-.28.5-.23.66-.57s-.06-.35.07-.51.15-.12.6-.22c.61-.15.67-.15.76-.23s.1-.36.33-.57.47-.09.63-.31,0-.38.16-.45.22.1.52.12.33-.07.44,0,.06.17.19.39a2.16,2.16,0,0,0,.35.38,2.7,2.7,0,0,1,.41.41c.15.17.09.2.23.35s.25.16.42.33a3.49,3.49,0,0,1,.36.54c.23.32.26.35.33.36s.38-.09.52-.2.17-.2.36-.33.29-.09.44-.2.25-.51.31-1a1.75,1.75,0,0,0,0-.48c0-.22-.15-.26-.35-.67s-.15-.41-.12-.5a.69.69,0,0,1,.19-.22.6.6,0,0,1,.45,0c.17.06.2.17.52.5s.36.28.41.29.25-.16.45-.16a.65.65,0,0,1,.42.31c.13.19.06.29.2.41s.15,0,.35.15.19.16.35.23a.53.53,0,0,0,.47,0c.15-.09.13-.16.23-.2s.22.07.47.17a2.24,2.24,0,0,0,.54.13,1.87,1.87,0,0,0,.57,0c.36,0,.36-.1.61-.09.09,0,.13,0,.67.23l.6.22c.47.17.55.2.66.16s.12-.12.32-.41a1.77,1.77,0,0,1,.47-.47,1.54,1.54,0,0,1,.44-.15,1.65,1.65,0,0,1,.52-.09c.25,0,.44,0,.52.12s0,.35,0,.44a.91.91,0,0,1-.42.51c-.26.15-.38.09-.57.25a.81.81,0,0,0-.22.39.71.71,0,0,0,.17.67c.16.13.26.06.6.22a.75.75,0,0,1,.41.32c.13.31-.19.6-.06.79s.19.07.5.12a2.59,2.59,0,0,1,.77.33,4.37,4.37,0,0,1,.71.54c.29.26.29.35.47.44a1,1,0,0,0,.74,0c.22-.07.19-.13.74-.42a.85.85,0,0,1,.45-.16,1.09,1.09,0,0,1,.47.15c.42.19.45.25.57.25a.68.68,0,0,0,.55-.55c0-.09,0-.15-.16-.6s-.23-.61-.22-.71.1-.22.39-.71.26-.58.44-.67.17-.06.71,0c.36,0,.63.1.92.13.76.12.83.07.86,0s-.19-.16-.41-.52-.13-.33-.26-.44a.8.8,0,0,0-.57,0c-.36,0-.41.15-.67.17a2.1,2.1,0,0,1-.89-.1c-.5-.15-.57-.31-.86-.28a.82.82,0,0,0-.66.36.85.85,0,0,0-.07.57c0,.48.16.68,0,.8s-.2,0-.41.12-.13.19-.22.22c-.25.1-.5-.38-.83-.33-.15,0-.12.12-.54.45a1.81,1.81,0,0,1-.73.41c-.22,0-.31,0-.32,0s-.1-.28-.23-.41-.25,0-.51-.07c-.07,0-.16,0-.77-.45-.39-.28-.47-.32-.47-.44a.38.38,0,0,1,.28-.31c.16,0,.23.06.57.07a.59.59,0,0,0,.35,0c.15-.09.09-.29.12-.73a8.13,8.13,0,0,0,.13-.89c0-.42,0-.5-.09-.52s-.28,0-.61,0a1.57,1.57,0,0,1-.63-.19,1.27,1.27,0,0,1-.57-.54c0-.1-.22-.42-.09-.67s.16-.13.32-.32.1-.28.26-.55a3.85,3.85,0,0,1,.45-.54c.28-.33.31-.36.41-.41a.79.79,0,0,1,.57.13c.32.15.36.31.6.31s.19-.07.36-.07a1.19,1.19,0,0,1,.67.26,2.35,2.35,0,0,0,1.18.28c.66,0,.68-.22,1.31-.15.29,0,.32.09.86.16a2.3,2.3,0,0,0,.77,0,1.86,1.86,0,0,1,.5-.09c.22,0,.23.09.48.1s.31-.07.51,0,.15.12.31.13.25-.07.39,0,.15.15.33.36a1.41,1.41,0,0,0,.58.41c.2.06.23,0,.41,0s.36.22.58.47c.61.64.67.5.87.84s.19.54.44.67.23.06.33.16,0,.25.15.44.16.1.25.25,0,.23.15.44.2.17.26.35,0,.23,0,.42,0,.19.35.64.41.44.5.67a1.93,1.93,0,0,0,.26.55c.1.13.15.12.25.25s.15.29.41.93a2.32,2.32,0,0,0,.23.47c.1.16.12.15.2.29.22.36.15.52.31.63s.25,0,.61,0a1.54,1.54,0,0,1,.44.15,1,1,0,0,1,.47.44c.12.26,0,.36.07.66a1.38,1.38,0,0,0,.36.45,2.63,2.63,0,0,0,.92.54c.39.13.48,0,.82.2a1.45,1.45,0,0,1,.48.36c.19.22.19.33.41.61a2,2,0,0,0,.35.35,2.65,2.65,0,0,0,.9.67c.31.1.36,0,.68.1a1.48,1.48,0,0,1,.51.33c.26.23.23.32.5.52a1.12,1.12,0,0,0,.45.28c.28.07.36-.1.76-.06s.32.12.47.06.19-.39.38-.47.12,0,.54.25a2.12,2.12,0,0,1,.63.51,3.56,3.56,0,0,1,.25.66,1.78,1.78,0,0,0,.15.35,1.45,1.45,0,0,0,.38.35c.35.23.41.15.61.32s.13.22.36.45a1.05,1.05,0,0,0,.58.35c.22,0,.23-.15.45-.13s.23.12.5.32a2.24,2.24,0,0,0,.28.25c.19.1.26.06.42.19s.15.2.28.25.22-.07.44-.06.22.13.47.26.38.09.67.23a2.88,2.88,0,0,1,.57.45,6.11,6.11,0,0,0,.71.54,2.31,2.31,0,0,1,.8.54c.22.22.22.28.35.35a1.29,1.29,0,0,0,.48.1c.29,0,.29,0,.42,0s.16,0,.61.44a2.51,2.51,0,0,1,.39.39c.13.22.07.31.2.58a2.94,2.94,0,0,0,.38.47,3,3,0,0,1,.47.58c.13.25.06.29.16.48s.39.31.73.61a2.25,2.25,0,0,1,.58,1,2.22,2.22,0,0,1,.12.82,3.23,3.23,0,0,0-.07.66,1.2,1.2,0,0,0,.12.67c.15.26.26.2.51.51s.15.38.35.58.28.19.58.38a6.54,6.54,0,0,1,.71.54,8.25,8.25,0,0,1,.89.86,4.31,4.31,0,0,1,.77.95,1.42,1.42,0,0,0,.35.67c.15.15.22.1.38.26s.2.32.42.6.28.22.42.42a2.43,2.43,0,0,1,.33.92,6.61,6.61,0,0,0,.31,1,1.87,1.87,0,0,0,.61.82,3.69,3.69,0,0,0,.93.32,3.53,3.53,0,0,1,.79.26,2.92,2.92,0,0,1,.71.8c.29.38.28.42.51.71s.29.32.63.71c.2.23.36.45.68.89a6.56,6.56,0,0,1,.48.68c.09.15.09.17.33.63l.47.84a4.91,4.91,0,0,0,.61.73l.71.71a5.23,5.23,0,0,1,.68.68,5.58,5.58,0,0,0,.48.77,1.38,1.38,0,0,1,.29.29c.19.28.1.54.16.8s.23.35.73.84c.74.74.63.92,1.18,1.35.26.2.2.09.9.52a4,4,0,0,1,1.08.87,2.34,2.34,0,0,1,.28.45,17.83,17.83,0,0,0,1.41,1.7c.5.64.32.64.87,1.37a9.44,9.44,0,0,1,.77,1.06c.1.16.07.16.39.77.42.8.42.77.54,1a8.85,8.85,0,0,0,.45,1.06,8.52,8.52,0,0,0,.7.87,3.9,3.9,0,0,1,.77,1.27c.13.39.29.84,0,1.18a.78.78,0,0,1-.76.26c-.28-.07-.42-.33-.73-.84a8.15,8.15,0,0,1-.44-.87c-.29-.64-.28-.77-.47-1s-.66-.39-.86-.25-.1.39-.07.57a3.68,3.68,0,0,0,.38,1c.17.35.26.52.2.61s-.36.1-.55,0c-.39-.16-.33-.48-.68-.66-.06,0-.1,0-.84,0a2.91,2.91,0,0,1-.83,0,1.28,1.28,0,0,1-.77-.36c-.17-.23-.1-.42-.29-.52s-.26,0-.48,0-.23-.26-.42-.31a.5.5,0,0,0-.47.23c-.12.15-.06.26-.09.82a2,2,0,0,1-.07.77c-.09.2-.13.19-.2.38s0,.5,0,.83a1.45,1.45,0,0,1-.39.71,4.1,4.1,0,0,1-.92.74c-.7.5-.86.57-1,.51a.58.58,0,0,1-.28-.45,2.62,2.62,0,0,1-.06-.87c0-.61-.16-.68-.09-1.08s.12-.29.15-.55a2.43,2.43,0,0,0-.13-.77,3.49,3.49,0,0,1-.06-.87,4,4,0,0,1,.16-1.09,1.66,1.66,0,0,1,.36-.77,1.75,1.75,0,0,1,.66-.33,3.26,3.26,0,0,0,.77-.28c.12-.09.33-.22.32-.41s0-.09-.31-.39a3.34,3.34,0,0,1-.31-.33,1.16,1.16,0,0,1-.16-.36,1.27,1.27,0,0,1,0-.41.85.85,0,0,0-.58-.79.63.63,0,0,0-.64.2c-.1.16,0,.28-.09.61a.69.69,0,0,1-.26.44c-.17.09-.39,0-.52-.12s-.25-.28-.57-.57-.44-.29-.45-.45.1-.16.1-.31-.06-.2-.41-.5-.41-.26-.54-.42-.19-.39-.39-.51-.28,0-.45-.13-.15-.23-.26-.47a2.47,2.47,0,0,0-.51-.6c-.17-.15-.5-.38-.77-.28s-.19.33-.48.45-.33,0-.55.06-.17.29-.41.41-.33,0-.45.07-.09.32,0,.74a1.89,1.89,0,0,0,.2.73l.23.35a.45.45,0,0,1,.32-.09c.19,0,.2.26.45.68a1.76,1.76,0,0,0,.47.64c.23.15.42.1.52.29a.65.65,0,0,1,.06.44c0,.36-.26.44-.23.67s.16.16.25.36,0,.25-.06.7c0,.17,0,.33-.09.61-.06.44,0,.45-.09.73s-.1.39-.09.52c0,.36.31.39.32.7s-.16.25-.25.68c0,.28,0,.39-.15.58s-.13.1-.22.22,0,.33-.16.6a.5.5,0,0,1-.31.33.58.58,0,0,1-.6-.36c-.07-.19,0-.29.16-1,0-.07.1-.42.16-.86.09-.61,0-.7,0-.76s-.63,0-.68,0c-.42.19-.41.47-.9.82-.28.19-.28.1-.82.41s-.5.35-.84.52-.76.38-1,.22-.16-.45-.48-.66a1,1,0,0,0-1,0c-.26.15-.2.29-.47.38a2.71,2.71,0,0,1-.68,0c-.35,0-.38,0-.42,0s0,.5.12,1.11a4.6,4.6,0,0,1,0,1.34,3.71,3.71,0,0,1-.36,1.09c-.12.26-.2.38-.33.42s-.16,0-.57-.16a3,3,0,0,1-.7-.32c-.2-.15-.31-.22-.32-.32s.2-.35.42-.74a2.63,2.63,0,0,0,.25-.86,2.82,2.82,0,0,0,0-1c-.09-.44-.25-.57-.15-.79s.28-.16.38-.38a.73.73,0,0,0-.09-.73,1.18,1.18,0,0,0-.77-.45c-.39-.07-.64.06-.73-.09s0,0,0-.38,0-.38.06-.44.29,0,.36-.13,0-.39-.2-.52a.71.71,0,0,0-.71,0s-.45.19-.5.52.09.29,0,.47-.16.13-.17.26a.53.53,0,0,0,.26.44c.15.09.17,0,.31.1s.12.26.31.54c0,.07,0,0,.35.44.13.16.16.22.16.28a.38.38,0,0,1-.41.23c-.26,0-.29-.32-.55-.35-.1,0-.09,0-.47.15-.2.06-.26.06-.31.1s-.07.31-.06.55a2.69,2.69,0,0,1-.09.9c-.12.38-.29.41-.33.77a2.37,2.37,0,0,0,0,.45,3.78,3.78,0,0,1-.06,1,2.69,2.69,0,0,1-.64,1.22,6.4,6.4,0,0,1-.52.41c-.55.41-.84.61-1.21.63-.16,0-.25,0-.36,0s-.22.36-.45.48-.36,0-.7.06-.19.16-.41.23a1.75,1.75,0,0,1-.95,0,1.94,1.94,0,0,1-.63-.19c-.39-.19-.55-.47-.73-.41s-.13.19-.26.23-.23-.12-.39-.22-.39,0-.89-.13a6.28,6.28,0,0,1-.89-.28c-.51-.19-.58-.26-.66-.33a1.27,1.27,0,0,1-.2-.64c-.09-.61,0-.76-.12-.93s-.54-.16-.79-.15a1.6,1.6,0,0,0-1.18.74,1.55,1.55,0,0,0-.1.89c0,.13,0,.52-.09,1.34-.09,1.17-.17,1.37-.29,1.54s-.28.33-.41.52c-.23.41-.16.57-.39.83a1.38,1.38,0,0,1-.71.42,1.67,1.67,0,0,1-.89,0c-.29-.09-.36-.19-.6-.19s-.23.12-.5.12-.36-.13-.58-.06-.13.1-.26.15a.58.58,0,0,1-.54-.16c-.07-.13,0-.39.2-.93a1.31,1.31,0,0,0,.15-.58c0-.16-.12-.26-.1-.42s.13-.19.25-.36a2,2,0,0,0,.1-1.35,1,1,0,0,0-.52-.5,1,1,0,0,0-.68,0,2.65,2.65,0,0,0-.77.54l-.52.44,0,0s.26.15.31.31-.19.28-.35.55-.12.41-.09,1,0,1.06,0,1.21a12.88,12.88,0,0,1-.29,1.46,1.45,1.45,0,0,0-.38.35,3.11,3.11,0,0,0-.48.86c-.22.48-.25.66-.41.7s-.38-.15-.41-.17c-.19-.19-.17-.44-.2-1a5.27,5.27,0,0,1,0-.93c.07-.57.31-.6.54-1.33,0-.13,0,0,.25-1.21.1-.54.25-1.18.25-1.18a1.35,1.35,0,0,1,.32-.82c.2-.23.32-.17.57-.45s.22-.39.42-.51.25,0,.41-.09.28-.19.61-.9a7.3,7.3,0,0,0,.51-1.15,1.46,1.46,0,0,1,.19-.57c.1-.16.16-.13.23-.26a.75.75,0,0,0,0-.74.68.68,0,0,0-.48-.25c-.28,0-.42.1-.52,0s0-.16-.07-.36-.25-.28-.23-.41.15-.2.41-.41a3.53,3.53,0,0,0,.48-.45,4.13,4.13,0,0,0,.51-1.56c0-.35,0-.66-.06-.87a3.89,3.89,0,0,1,0-.58c.09-.41.31-.51.25-.74s-.16-.19-.38-.35c-.42-.28-.57-.22-.77-.45s-.09-.23-.25-.36a.83.83,0,0,0-.77-.19c-.25.07-.2.26-.48.36a1.13,1.13,0,0,1-.76,0c-.32-.09-.29-.17-.51-.19s-.33.19-.67.17-.31-.13-.52-.09-.19.13-.36.16-.38-.2-.66-.16-.17.15-.41.2-.23,0-.73-.09a1.79,1.79,0,0,0-.55-.06c-.25.07-.38.29-.55.55s-.12.29-.25.45-.29.2-.67.47a2.78,2.78,0,0,0-.63.54c-.19.22-.28.39-.44.41s-.17-.09-.31-.07-.15.15-.33.25a.65.65,0,0,1-.57.07c-.2-.06-.22-.22-.38-.2s-.13.16-.29.2a.48.48,0,0,1-.44-.15c-.25-.25-.15-.7-.1-.86.16-.68.55-.76.64-1.43,0-.19,0-.38.06-.55a3.38,3.38,0,0,1,.36-.77,6.76,6.76,0,0,0,.47-1c.09-.32,0-.31.15-.67a6.52,6.52,0,0,1,.41-1c.13-.31.25-.6.41-.9s.5-.41.63-.8a1,1,0,0,1,.22-.51c.15-.15.25-.1.35-.23a.53.53,0,0,0,0-.61c-.15-.23-.41-.09-.64-.32s-.2-.41-.25-.86a2.12,2.12,0,0,1,0-.74c.07-.36.2-.38.28-.71a2.93,2.93,0,0,0,0-.71c0-.5-.09-.5-.09-.73,0-.52.19-.57.13-.86s-.33-.45-.9-.82a10.81,10.81,0,0,1-1-.58c-.31-.28-.22-.33-.71-1l-.92-1.24c-.22-.31-.31-.42-.31-.6,0-.36.44-.55.33-.83a.39.39,0,0,0-.26-.26c-.15-.06-.22,0-.38,0s-.22,0-.48-.45a2.58,2.58,0,0,1-.39-.92c-.12-.58,0-.84-.22-1.12-.09-.09-.15-.12-.19-.22s.09-.32.23-.61a1.78,1.78,0,0,0,.28-.71.84.84,0,0,0-.42-.8.7.7,0,0,0-.54,0c-.26.17-.12.41-.42.95a.61.61,0,0,0-.15.44c0,.13.09.12.15.26s-.09.35,0,.61.1.13.15.26,0,.26,0,.48c0,.38.13.45,0,.61s-.55.09-.68.31,0,.25.1.42a2,2,0,0,0,.77.77.9.9,0,0,0,.55.17c.25,0,.31-.16.51-.13s.42.36.44.41a1.07,1.07,0,0,1,.06.64c-.09.44-.32.52-.26.76s.33.19.48.48c0,.1,0,.16,0,.74s0,.63-.06.76a.88.88,0,0,1-.52.32c-.55.2-.7.06-1.14.23s-.33.31-.7.41a1.55,1.55,0,0,1-.82,0c-.6-.07-.8-.33-1.15-.22-.07,0-.36.13-.36.13a1.12,1.12,0,0,0-.26-.26,1.79,1.79,0,0,0-.6-.19c-.52-.12-.45-.16-.66-.16s-.32.12-.64.12a1.57,1.57,0,0,1-.63-.19c-.2-.15-.15-.2-.32-.32a1.54,1.54,0,0,0-.71-.19c-.26,0-.29,0-.41,0s-.22-.22-.44-.35-.25,0-.52-.12-.29-.23-.58-.35-.32,0-.52-.12a.81.81,0,0,1-.36-.33c-.16-.31,0-.66.17-1.14a3.55,3.55,0,0,0,.2-.5c.12-.38.09-.44.17-.67s.26-.26.42-.6a1.5,1.5,0,0,0,.2-.64c0-.38-.12-.52,0-.73s.17-.12.29-.29.13-.28.13-.71c0-.28,0-.5,0-.7,0-.71,0-.83,0-1s.17-.17.41-.44a2.1,2.1,0,0,0,.52-1.25c0-.38-.17-.41-.15-.79s.13-.36.31-.83a7,7,0,0,0,.25-1.09,6,6,0,0,1,.25-1c0-.09,0-.1.35-.79a6.27,6.27,0,0,1,.36-.77,1.31,1.31,0,0,1,.63-.63c.19-.07.2,0,.39-.1s.33-.33.61-.52.35,0,.71-.22.31-.33.76-.58c.22-.13.29-.12.35-.23a.77.77,0,0,0-.29-.87c-.22-.13-.32,0-.68-.16-.09,0-.51-.22-.52-.5s.06-.15.09-.29a.76.76,0,0,0-.47-.76c-.23-.06-.33.13-.48,0s-.09-.26-.25-.66a2,2,0,0,0-.32-.52c-.23-.29-.29-.29-.36-.45a1.09,1.09,0,0,1,0-.74,1.89,1.89,0,0,1,.51-.74c.45-.51.66-.54.7-.82a.91.91,0,0,0-.25-.68.64.64,0,0,0-.36-.25.51.51,0,0,0-.41.09c-.17.15-.07.33-.26.5s-.26.09-.32.2,0,.22,0,.35-.17.09-.47.17a2.74,2.74,0,0,0-.55.26c-.25.16-.28.25-.39.22s-.12-.17-.29-.41-.31-.25-.35-.38.32-.35.51-.83c.09-.23,0-.2.1-.71a7.27,7.27,0,0,0,.16-.77c0-.35,0-.39,0-.57s.25-.19.5-.5a1.43,1.43,0,0,0,.29-.52.84.84,0,0,0,0-.6c-.09-.2-.2-.17-.25-.33s.19-.39.12-.61-.16-.1-.29-.29a.87.87,0,0,1-.07-.68c.06-.23.13-.22.15-.38s-.17-.35-.16-.66.06-.2,0-.31a.46.46,0,0,0-.28-.25.54.54,0,0,0-.51.1.67.67,0,0,0-.2.52c0,.32.06.38,0,.64s-.12.2-.17.41a1,1,0,0,0,0,.57c.1.25.25.22.32.44s0,.22,0,.5.09.2.17.47a3.64,3.64,0,0,1,.1.6,1.28,1.28,0,0,1,0,.58c-.06.12-.2.26-.31.22s-.09-.06-.2-.41-.12-.35-.19-.39a.28.28,0,0,0-.32.09c-.09.09,0,.19-.1.33a1,1,0,0,1-.25.25,1.18,1.18,0,0,1-.26.15,1,1,0,0,1-.51,0c-.35-.09-.41-.23-.55-.17s-.1.16-.29.29c0,0-.25.16-.41.09s-.12-.17-.22-.63l-.17-.76c-.1-.28-.2-.38-.15-.47s.29-.06.44,0a1,1,0,0,1,.35.35,2.24,2.24,0,0,0,.51.54.7.7,0,0,0,.54.16.75.75,0,0,0,.41-.32,1.26,1.26,0,0,0,.13-.86,4.79,4.79,0,0,0-.13-.63c-.15-.5-.22-.51-.29-.82a5.55,5.55,0,0,1,0-.95,7.79,7.79,0,0,1,0-.87,3.83,3.83,0,0,0,.1-.71c0-.32,0-.39-.06-.44s-.32.09-.6,0-.17-.23-.39-.31-.41.09-.63,0c0,0-.1-.07-.29-.41-.28-.54-.23-.64-.39-.77a.64.64,0,0,0-.63-.1c-.26.12-.23.41-.52.52a1.88,1.88,0,0,1-.5,0c-.66,0-.77-.13-.82-.17s-.12-.2-.25-.25-.25.07-.52.12-.48-.07-.66,0-.09.26-.26.38-.19,0-.51.13-.29.17-.47.17-.19,0-.45-.07-.42.07-.63,0a1.09,1.09,0,0,1-.38-.35c-.13-.13-.22-.25-.33-.36l-.1-.1C1246.2,437.46,1246.18,437.45,1246.17,437.43Z" transform="translate(39 53)"/><path class="cls-16" d="M1309.41,491.82c-.12,0-.15.12-.45.39a2.56,2.56,0,0,1-.44.35c-.33.19-.45.13-.57.28s0,.17,0,.73,0,.66-.07.71-.17.17-.2.35.06.26,0,.41-.22.13-.32.32,0,.25-.07.45a.68.68,0,0,1-.35.35,1.49,1.49,0,0,1-.55.15c-.32,0-.36-.13-.68-.16s-.32.09-.74.13a1.28,1.28,0,0,1-.77-.07c-.31-.16-.26-.41-.58-.58a1.44,1.44,0,0,0-.66-.1,2.84,2.84,0,0,0-1,.12,1.06,1.06,0,0,0-.79.7,1.88,1.88,0,0,0-.19.89,4.57,4.57,0,0,0,0,.51h0a.72.72,0,0,0,.12.41c.12.12.44,0,.61-.15s.23-.32.45-.39a.83.83,0,0,1,.67.12c.2.12.2.2.61.61s.44.38.54.39a1,1,0,0,0,.51-.13c.25-.13.25-.22.38-.23s.28.13.73.44.51.28.57.28a.9.9,0,0,0,.52-.12c.1,0,.25-.13.66-.66a5.29,5.29,0,0,0,.5-.67c.16-.36.1-.54.32-.79s.19-.13.28-.28a1.06,1.06,0,0,0,.12-.64c0-.39-.06-.47,0-.63a.44.44,0,0,1,.36-.28c.15,0,.16.1.38.15s.22,0,.44,0,.26.12.5.12c.06,0,.33,0,.42-.13s-.06-.2,0-.42.23-.35.22-.54-.32-.2-.54-.54a3.53,3.53,0,0,1-.19-.6c-.07-.22-.16-.42-.25-.63C1309.64,492,1309.54,491.83,1309.41,491.82Z" transform="translate(39 53)"/></g><polyline class="cls-17" points="1 453.13 221 453.13 221 372.9 1 372.9"/><polyline class="cls-17" points="1 358.13 221 358.13 221 272 1 272"/><polyline class="cls-17" points="1 643.13 221 643.13 221 562.9 1 562.9"/><polyline class="cls-17" points="1 548.13 221 548.13 221 467.9 1 467.9"/><polyline class="cls-17" points="1 738.13 221 738.13 221 657.9 1 657.9"/><rect class="cls-18" x="192" y="284" width="25" height="74"/><rect class="cls-19" x="151" y="284" width="14" height="74"/><rect class="cls-20" x="166" y="303" width="25" height="55"/><rect class="cls-21" x="136" y="284" width="14" height="74"/><rect class="cls-22" x="9.75" y="259.75" width="16.5" height="74" transform="translate(-239.75 367.75) rotate(-90)"/><rect class="cls-23" x="121" y="289" width="14" height="69"/><rect class="cls-24" x="95" y="280" width="25" height="78"/><rect class="cls-25" x="13.76" y="380.47" width="12.25" height="72.07"/><rect class="cls-25" x="26.01" y="380.47" width="12.25" height="72.07"/><rect class="cls-25" x="38.26" y="380.47" width="12.25" height="72.07"/><rect class="cls-25" x="50.51" y="380.47" width="12.25" height="72.07"/><rect class="cls-25" x="62.75" y="380.47" width="12.25" height="72.07"/><rect class="cls-25" x="75" y="380.47" width="12.25" height="72.07"/><rect class="cls-25" x="87.25" y="380.47" width="12.25" height="72.07"/><rect class="cls-25" x="99.49" y="380.47" width="12.25" height="72.07"/><rect class="cls-25" x="111.74" y="380.47" width="12.25" height="72.07"/><rect class="cls-25" x="123.99" y="380.47" width="12.25" height="72.07"/><rect class="cls-25" x="136.23" y="380.47" width="12.25" height="72.07"/><rect class="cls-25" x="148.48" y="380.47" width="12.25" height="72.07"/><rect class="cls-25" x="160.73" y="380.47" width="12.25" height="72.07"/><rect class="cls-25" x="172.97" y="380.47" width="12.25" height="72.07"/><rect class="cls-25" x="185.22" y="380.47" width="12.25" height="72.07"/><rect class="cls-25" x="162.24" y="327.47" width="12.25" height="72.07" transform="translate(8.99 68.47) rotate(-4.83)"/><rect class="cls-25" x="2.01" y="380.47" width="12.25" height="72.07"/><rect class="cls-26" x="51.67" y="668" width="11.12" height="69.54"/><rect class="cls-26" x="62.79" y="668" width="11.12" height="69.54"/><rect class="cls-26" x="73.91" y="668" width="11.12" height="69.54"/><rect class="cls-26" x="85.03" y="668" width="11.12" height="69.54"/><rect class="cls-26" x="96.15" y="668" width="11.12" height="69.54"/><rect class="cls-26" x="107.27" y="668" width="11.12" height="69.54"/><rect class="cls-26" x="118.39" y="668" width="11.12" height="69.54"/><rect class="cls-26" x="129.51" y="668" width="11.12" height="69.54"/><rect class="cls-26" x="140.63" y="668" width="11.12" height="69.54"/><rect class="cls-26" x="151.75" y="668" width="11.12" height="69.54"/><rect class="cls-26" x="162.87" y="668" width="11.12" height="69.54"/><rect class="cls-26" x="185.11" y="668" width="11.12" height="69.54"/><rect class="cls-26" x="196.23" y="668" width="11.12" height="69.54"/><rect class="cls-26" x="207.35" y="668" width="11.12" height="69.54"/><rect class="cls-26" x="41" y="668" width="11.12" height="69.54"/><rect class="cls-26" x="174.27" y="668" width="11.12" height="69.54"/><rect class="cls-26" x="7.67" y="668" width="11.12" height="69.54"/><rect class="cls-26" x="18.79" y="668" width="11.12" height="69.54"/><rect class="cls-26" x="29.91" y="668" width="11.12" height="69.54"/><polyline class="cls-26" points="1 668 8.12 668 8.12 737.54 1 737.54"/><rect class="cls-27" x="1" y="668" width="217" height="70"/><rect class="cls-23" x="1358" y="499.5" width="16.5" height="94.5" transform="translate(858.5 1966) rotate(-90)"/><rect class="cls-20" x="1365" y="489.5" width="16.5" height="80.5" transform="translate(882.5 1956) rotate(-90)"/><rect class="cls-20" x="129" y="448.5" width="12.5" height="80.5" transform="translate(-314.5 677) rotate(-90)"/><rect class="cls-24" x="129" y="426" width="14" height="69" transform="translate(635.5 377.5) rotate(90)"/><rect class="cls-26" x="132" y="442" width="7" height="74" transform="translate(653.5 396.5) rotate(90)"/><rect class="cls-21" x="132" y="435" width="7" height="74" transform="translate(646.5 389.5) rotate(90)"/><rect class="cls-28" x="3.5" y="478.5" width="14" height="69"/><rect class="cls-28" x="17.5" y="478.5" width="14" height="69"/><rect class="cls-28" x="31.5" y="478.5" width="14" height="69"/><rect class="cls-28" x="45.5" y="478.5" width="14" height="69"/><rect class="cls-28" x="26.5" y="425.5" width="14" height="69" transform="matrix(1, -0.08, 0.08, 1, 0.38, 57.45)"/><rect class="cls-20" x="13" y="247" width="16.5" height="65.5" transform="translate(-219.5 354) rotate(-90)"/><rect class="cls-23" x="160.73" y="570.47" width="12.25" height="72.07"/><rect class="cls-23" x="172.97" y="570.47" width="12.25" height="72.07"/><rect class="cls-23" x="185.22" y="570.47" width="12.25" height="72.07"/><rect class="cls-23" x="162.24" y="517.47" width="12.25" height="72.07" transform="translate(-7.01 69.14) rotate(-4.83)"/><rect class="cls-23" x="110.25" y="517.47" width="12.25" height="72.07" transform="translate(271.74 1160.01) rotate(-180)"/><rect class="cls-23" x="98" y="517.47" width="12.25" height="72.07" transform="translate(247.25 1160.01) rotate(-180)"/><rect class="cls-23" x="85.75" y="517.47" width="12.25" height="72.07" transform="translate(222.76 1160.01) rotate(-180)"/><rect class="cls-23" x="69.74" y="517.47" width="12.25" height="72.07" transform="translate(143.85 1164.43) rotate(-175.17)"/><rect class="cls-19" x="6.5" y="588.5" width="42" height="54"/><rect class="cls-29" x="14.5" y="595.75" width="26" height="6.5" rx="3.25" ry="3.25"/><rect class="cls-19" x="50.5" y="588.5" width="42" height="54"/><rect class="cls-29" x="58.5" y="595.75" width="26" height="6.5" rx="3.25" ry="3.25"/><path class="cls-25" d="M57.16,470.35A14.62,14.62,0,0,1,52.62,464c-1.49-3.74-.5-4.51-1.82-9.09s-3.21-6.92-2.73-7.27,2.49,2.74,7.27,6.36c3.53,2.67,5.19,3,6.36,5.45.64,1.32.73,2.69.91,5.45.25,3.78.43,6.56-.91,7.27S58.23,471.19,57.16,470.35Z" transform="translate(39 53)"/><path class="cls-25" d="M59.31,469.58a14.62,14.62,0,0,1-3-7.22c-.61-4,.53-4.51.28-9.26s-1.56-7.47-1-7.7,1.8,3.23,5.64,7.84c2.83,3.4,4.37,4.13,5,6.75.32,1.43.1,2.79-.35,5.52-.61,3.73-1.06,6.49-2.53,6.88S60.17,470.63,59.31,469.58Z" transform="translate(39 53)"/><path class="cls-25" d="M79,471.35a14.62,14.62,0,0,0,4.77-6.2c1.62-3.68.66-4.49,2.14-9s3.45-6.8,3-7.17-2.58,2.65-7.49,6.1c-3.62,2.55-5.3,2.85-6.55,5.22-.68,1.29-.82,2.67-1.1,5.42-.38,3.76-.66,6.55.65,7.3S77.95,472.14,79,471.35Z" transform="translate(39 53)"/><path class="cls-25" d="M68.35,466.89a14.62,14.62,0,0,1,3.06-7.19c2.42-3.22,3.59-2.78,6.81-6.28s4.24-6.34,4.79-6.11-1,3.55-1.65,9.52c-.44,4.4.11,6-1.34,8.27-.79,1.23-1.92,2-4.18,3.61-3.09,2.18-5.38,3.79-6.68,3S68.19,468.23,68.35,466.89Z" transform="translate(39 53)"/><path class="cls-25" d="M64.77,469.58a14.62,14.62,0,0,1-3-7.22c-.61-4,.53-4.51.28-9.26s-1.56-7.47-1-7.7,1.8,3.23,5.64,7.84c2.83,3.4,4.37,4.13,5,6.75.32,1.43.1,2.79-.35,5.52-.61,3.73-1.06,6.49-2.53,6.88S65.62,470.63,64.77,469.58Z" transform="translate(39 53)"/><path class="cls-25" d="M65.79,467a14.62,14.62,0,0,1,2-7.56c1.93-3.53,3.16-3.26,5.84-7.19s3.28-6.88,3.86-6.74-.52,3.66-.26,9.66c.19,4.42,1,5.94-.14,8.38-.61,1.33-1.61,2.28-3.62,4.18-2.75,2.6-4.78,4.52-6.18,3.94S65.83,468.4,65.79,467Z" transform="translate(39 53)"/><path class="cls-25" d="M65.81,468.75a14.62,14.62,0,0,1-.38-7.81c.77-4,2-4.07,3.38-8.63s1-7.56,1.64-7.59.61,3.65,2.68,9.28c1.52,4.16,2.72,5.36,2.4,8-.17,1.45-.84,2.66-2.18,5.08-1.83,3.31-3.19,5.76-4.69,5.62S66.26,470,65.81,468.75Z" transform="translate(39 53)"/><polygon class="cls-30" points="91.5 520.5 122.5 520.5 116.5 547.5 97.5 547.5 91.5 520.5"/><rect class="cls-9" x="343" y="530" width="758" height="6"/><polyline class="cls-17" points="1 836.13 221 836.13 221 755.9 1 755.9"/><rect class="cls-20" x="12.76" y="767.44" width="12.25" height="68.07"/><rect class="cls-20" x="25.01" y="767.44" width="12.25" height="68.07"/><rect class="cls-20" x="37.26" y="767.44" width="12.25" height="68.07"/><rect class="cls-20" x="49.51" y="767.44" width="12.25" height="68.07"/><rect class="cls-20" x="61.75" y="767.44" width="12.25" height="68.07"/><rect class="cls-20" x="74" y="767.44" width="12.25" height="68.07"/><rect class="cls-20" x="86.25" y="767.44" width="12.25" height="68.07"/><rect class="cls-20" x="98.49" y="767.44" width="12.25" height="68.07"/><rect class="cls-20" x="110.74" y="767.44" width="12.25" height="68.07"/><rect class="cls-20" x="122.99" y="767.44" width="12.25" height="68.07"/><rect class="cls-20" x="135.23" y="767.44" width="12.25" height="68.07"/><rect class="cls-20" x="147.48" y="767.44" width="12.25" height="68.07"/><rect class="cls-20" x="159.73" y="767.44" width="12.25" height="68.07"/><polygon class="cls-20" points="209.15 834.16 197.06 836 185.57 768.8 197.66 766.96 209.15 834.16"/><rect class="cls-20" x="1.5" y="767.44" width="11.76" height="68.07"/><polygon class="cls-20" points="190.5 834.9 178.29 835.88 172.22 768.05 184.43 767.08 190.5 834.9"/><rect class="cls-31" x="1023" y="531" width="40" height="5" rx="2.5" ry="2.5"/><rect class="cls-31" x="1066" y="531" width="10" height="5" rx="2.5" ry="2.5"/><path class="cls-32" d="M290,27V496h786V27Zm772,456H304V41h758Z" transform="translate(39 53)"/><rect class="cls-28" x="-2.25" y="159.75" width="16.5" height="74" transform="translate(-151.75 255.75) rotate(-90)"/><rect class="cls-20" x="-1.14" y="151.5" width="9.28" height="64" transform="translate(-141 240) rotate(-90)"/><path class="cls-25" d="M1361,497.34c-.21.15-1.21-1-2.86-2.86a28.3,28.3,0,0,1-4.29-5.72c-.83-1.57-1.87-4-1.43-4.29s2.29,1.8,2.38,1.91a13.15,13.15,0,0,1,1.91,2.86C1359,494.05,1361.3,497.11,1361,497.34Z" transform="translate(39 53)"/><path class="cls-25" d="M1361.54,494.61c-.22.13-1.14-1.07-2.67-3a28.3,28.3,0,0,1-3.91-6c-.73-1.62-1.6-4.12-1.15-4.37s2.17,1.94,2.25,2.06a13.15,13.15,0,0,1,1.72,3C1359.8,491.2,1361.89,494.4,1361.54,494.61Z" transform="translate(39 53)"/><path class="cls-25" d="M1363.58,496.08c-.24.1-1-1.21-2.23-3.38a28.3,28.3,0,0,1-3.05-6.47c-.5-1.7-1-4.3-.54-4.49s1.88,2.22,2,2.35a13.15,13.15,0,0,1,1.29,3.19C1362.33,492.46,1364,495.92,1363.58,496.08Z" transform="translate(39 53)"/><path class="cls-25" d="M1365,496.53c-.25,0-.71-1.39-1.48-3.76a28.3,28.3,0,0,1-1.65-7c-.14-1.77-.11-4.42.4-4.5s1.38,2.56,1.42,2.7a13.15,13.15,0,0,1,.61,3.38C1364.55,492.73,1365.43,496.45,1365,496.53Z" transform="translate(39 53)"/><path class="cls-25" d="M1367.29,495.48c-.25.06-.76-1.36-1.61-3.71a28.3,28.3,0,0,1-1.89-6.9c-.2-1.76-.26-4.41.25-4.52s1.47,2.51,1.52,2.65a13.15,13.15,0,0,1,.72,3.36C1366.68,491.7,1367.69,495.39,1367.29,495.48Z" transform="translate(39 53)"/><path class="cls-25" d="M1368.35,495.63c-.26,0-.59-1.45-1.14-3.88a28.3,28.3,0,0,1-1-7.08c0-1.77.28-4.41.8-4.45s1.15,2.67,1.18,2.82a13.15,13.15,0,0,1,.3,3.42C1368.21,491.8,1368.76,495.58,1368.35,495.63Z" transform="translate(39 53)"/><path class="cls-25" d="M1369.26,495.65c-.26,0-.38-1.52-.58-4a28.3,28.3,0,0,1,0-7.15c.27-1.75.89-4.33,1.42-4.3s.76,2.81.77,3a13.15,13.15,0,0,1-.18,3.43C1369.66,491.84,1369.67,495.66,1369.26,495.65Z" transform="translate(39 53)"/><path class="cls-25" d="M1382.19,498.34c.21.15,1.21-1,2.86-2.86a28.3,28.3,0,0,0,4.29-5.72c.83-1.57,1.87-4,1.43-4.29s-2.29,1.8-2.38,1.91a13.15,13.15,0,0,0-1.91,2.86C1384.15,495.05,1381.86,498.11,1382.19,498.34Z" transform="translate(39 53)"/><path class="cls-25" d="M1381.62,495.61c.22.13,1.14-1.07,2.67-3a28.3,28.3,0,0,0,3.91-6c.73-1.62,1.6-4.12,1.15-4.37s-2.17,1.94-2.25,2.06a13.15,13.15,0,0,0-1.72,3C1383.36,492.2,1381.27,495.4,1381.62,495.61Z" transform="translate(39 53)"/><path class="cls-25" d="M1379.58,497.08c.24.1,1-1.21,2.23-3.38a28.3,28.3,0,0,0,3.05-6.47c.5-1.7,1-4.3.54-4.49s-1.88,2.22-2,2.35a13.15,13.15,0,0,0-1.29,3.19C1380.83,493.46,1379.2,496.92,1379.58,497.08Z" transform="translate(39 53)"/><path class="cls-25" d="M1378.13,497.53c.25,0,.71-1.39,1.48-3.76a28.3,28.3,0,0,0,1.65-7c.14-1.77.11-4.42-.4-4.5s-1.38,2.56-1.42,2.7a13.15,13.15,0,0,0-.61,3.38C1378.61,493.73,1377.73,497.45,1378.13,497.53Z" transform="translate(39 53)"/><path class="cls-25" d="M1375.87,496.48c.25.06.76-1.36,1.61-3.71a28.3,28.3,0,0,0,1.89-6.9c.2-1.76.26-4.41-.25-4.52s-1.47,2.51-1.52,2.65a13.15,13.15,0,0,0-.72,3.36C1376.48,492.7,1375.47,496.39,1375.87,496.48Z" transform="translate(39 53)"/><path class="cls-25" d="M1374.81,496.63c.26,0,.59-1.45,1.14-3.88a28.3,28.3,0,0,0,1-7.08c0-1.77-.28-4.41-.8-4.45S1375,483.89,1375,484a13.15,13.15,0,0,0-.3,3.42C1375,492.8,1374.41,496.58,1374.81,496.63Z" transform="translate(39 53)"/><path class="cls-25" d="M1373.9,496.65c.26,0,.38-1.52.58-4a28.3,28.3,0,0,0,0-7.15c-.27-1.75-.89-4.33-1.42-4.3s-.76,2.81-.77,3a13.15,13.15,0,0,0,.18,3.43C1373.5,492.84,1373.49,496.66,1373.9,496.65Z" transform="translate(39 53)"/><path class="cls-25" d="M1371.26,495.65c-.26,0-.38-1.52-.58-4a28.3,28.3,0,0,1,0-7.15c.27-1.75.89-4.33,1.42-4.3s.76,2.81.77,3a13.15,13.15,0,0,1-.18,3.43C1371.66,491.84,1371.67,495.66,1371.26,495.65Z" transform="translate(39 53)"/><path class="cls-25" d="M1372.26,496.65c-.26,0-.38-1.52-.58-4a28.3,28.3,0,0,1,0-7.15c.27-1.75.89-4.33,1.42-4.3s.76,2.81.77,3a13.15,13.15,0,0,1-.18,3.43C1372.66,492.84,1372.67,496.66,1372.26,496.65Z" transform="translate(39 53)"/><polygon class="cls-30" points="1394.81 545.99 1427 545.99 1420.77 574.03 1401.04 574.03 1394.81 545.99"/></svg>