<?xml version="1.0" encoding="utf-8"?>
<!-- Generator: Adobe Illustrator 21.1.0, SVG Export Plug-In . SVG Version: 6.00 Build 0)  -->
<svg version="1.1" id="Layer_1" xmlns="http://www.w3.org/2000/svg" xmlns:xlink="http://www.w3.org/1999/xlink" x="0px" y="0px"
	 viewBox="0 0 500 500" style="enable-background:new 0 0 500 500;" xml:space="preserve">
<style type="text/css">
	.st0{fill:#0B4951;}
	.st1{fill:#FFFFFF;}
</style>
<ellipse transform="matrix(0.7071 -0.7071 0.7071 0.7071 -84.6889 242.3336)" class="st0" cx="250.2" cy="223.4" rx="37.6" ry="37.6"/>
<g>
	<g>
		<g>
			<path class="st1" d="M234.3,210.9c-2,0.7-4,1.5-6,2.2c1,0.6,2.1,1.2,3.1,1.7c-0.7-2-1.5-4-2.2-6c-1.1-3-5.9-1.7-4.8,1.3
				c0.7,2,1.5,4,2.2,6c0.4,1.2,1.7,2.2,3.1,1.7c2-0.7,4-1.5,6-2.2C238.6,214.6,237.3,209.8,234.3,210.9L234.3,210.9z"/>
		</g>
	</g>
	<g>
		<g>
			<path class="st1" d="M233.4,212.3c11.3-15.8,37.3-7.5,36,12.3c-1.3,19.9-27.6,24.4-37.1,7.8c-1.6-2.8-5.9-0.3-4.3,2.5
				c5.6,9.7,16.7,15,27.7,12.3c10.4-2.6,18.1-12,18.7-22.7c0.6-10.6-6.1-20.6-16-24.4c-11-4.1-22.7,0.2-29.3,9.6
				C227.3,212.4,231.6,214.9,233.4,212.3L233.4,212.3z"/>
		</g>
	</g>
</g>
</svg>
